<svg
                          width="100"
                          height="40"
                          viewBox="0 0 350 73"
                          fill="none"
                          xmlns="http://www.w3.org/2000/svg"
                        >
                          <path
                            d="M242.056 70.3987C240.225 71.2648 236.572 72.2031 232.18 72.2031C221.211 72.2031 214.141 65.1742 214.141 54.3275C214.141 43.8616 221.299 35.7287 233.607 35.7287C236.876 35.7287 240.129 36.441 242.152 37.3232L240.582 43.9692C239.159 43.2757 237.039 42.6023 233.889 42.6023C227.14 42.6023 223.143 47.529 223.174 53.9358C223.174 61.1048 227.888 65.2148 233.918 65.2148C236.949 65.2148 239.138 64.5586 240.866 63.8354L242.056 70.3987Z"
                            fill="#212F62"
                          />
                          <path
                            d="M267.319 54.327C261.076 54.2444 255.104 55.5591 255.104 60.8812C255.104 64.3029 257.352 65.9154 260.148 65.9154C263.679 65.9154 266.223 63.6387 267.072 61.079C267.262 60.4658 267.319 59.7707 267.319 59.1579V54.327ZM268.49 71.4446L267.885 67.5509H267.672C265.551 70.3092 261.89 72.2344 257.36 72.2344C250.261 72.2344 246.328 67.1688 246.328 61.8383C246.328 53.0191 254.195 48.5539 267.084 48.6053V48.0274C267.084 45.7302 266.173 41.9103 259.979 41.9336C256.551 41.9336 252.956 43.0376 250.571 44.541L248.818 38.806C251.462 37.2011 255.992 35.7037 261.502 35.7037C272.724 35.7037 275.927 42.772 275.927 50.4402V63.0255C275.927 66.2028 276.086 69.2862 276.472 71.4446H268.49Z"
                            fill="#212F62"
                          />
                          <path
                            d="M294.116 56.9806C294.116 57.7143 294.193 58.4302 294.34 59.0643C295.271 62.643 298.334 65.2516 302.147 65.2516C307.694 65.2516 311.047 60.8434 311.047 53.7816C311.047 47.6333 308.076 42.5745 302.241 42.5745C298.656 42.5745 295.354 45.137 294.401 49.0319C294.239 49.7198 294.116 50.4871 294.116 51.3243V56.9806ZM284.984 71.4446C285.144 69.0932 285.272 65.2248 285.272 61.6421V20.4713H294.116V41.3055H294.26C296.406 37.8858 300.225 35.7037 305.432 35.7037C313.968 35.7037 320.079 42.7663 320.018 53.4184C320.018 65.9841 312.049 72.2344 304.126 72.2344C299.609 72.2344 295.627 70.5119 293.1 66.1843H292.941L292.544 71.4446H284.984Z"
                            fill="#212F62"
                          />
                          <path
                            d="M326.905 63.3209C328.858 64.5285 332.665 65.8713 335.833 65.8713C339.725 65.8713 341.464 64.2403 341.464 61.9479C341.464 59.5805 340.021 58.3797 335.718 56.8523C328.869 54.5093 326.016 50.7866 326.047 46.6453C326.047 40.4989 331.161 35.7086 339.325 35.7086C343.181 35.7086 346.553 36.6702 348.606 37.7963L346.852 44.0001C345.379 43.1665 342.548 41.9894 339.451 41.9894C336.304 41.9894 334.551 43.5406 334.551 45.6909C334.551 47.9094 336.238 48.9754 340.66 50.5871C347.027 52.8354 349.965 56.0797 349.996 61.2308C349.996 67.6059 345.025 72.2031 335.786 72.2031C331.551 72.2031 327.701 71.191 325.125 69.755L326.905 63.3209Z"
                            fill="#212F62"
                          />
                          <path
                            d="M0 10.0545H22.5765L30.847 54.0398L40.0116 10.0545H62.3643L70.6348 54.0398L79.1288 10.0545H99.9173L81.3644 72.125H58.7879L49.9584 29.9261L40.9056 72.125H17.6589L0 10.0545Z"
                            fill="#212F62"
                          />
                          <path
                            d="M106.844 10.0561H166.301V23.8988H146.854V72.125H126.067L125.839 24.3158L106.844 23.8988V10.0561Z"
                            fill="#212F62"
                          />
                          <path
                            d="M171.891 26.77H192.902V72.0938H171.891V26.77Z"
                            fill="#212F62"
                          />
                          <path
                            d="M192.926 10.322C192.926 15.8913 188.406 20.4062 182.83 20.4062C177.254 20.4062 172.734 15.8913 172.734 10.322C172.734 4.75279 177.254 0.237825 182.83 0.237825C188.406 0.237825 192.926 4.75279 192.926 10.322Z"
                            fill="#E8262B"
                          />
                        </svg>